# Blender v3.0.1 OBJ File: ''
# www.blender.org
mtllib tree1.mtl
o Cylinder
v 0.000000 -1.000000 -1.000000
v 0.232677 0.987754 -1.000000
v 0.951057 -1.000000 -0.309017
v 1.183734 0.987754 -0.309017
v 0.587785 -1.000000 0.809017
v 0.820462 0.987754 0.809017
v -0.587785 -1.000000 0.809017
v -0.355108 0.987754 0.809017
v -0.951056 -1.000000 -0.309017
v -0.718379 0.987754 -0.309017
v 0.000000 4.441174 -1.000000
v 0.951057 4.441174 -0.309017
v 0.587785 4.441174 0.809017
v -0.587785 4.441174 0.809017
v -0.951056 4.441174 -0.309017
v 0.000000 -2.089909 -1.820601
v 1.731494 -2.089909 -0.562597
v 1.070122 -2.089909 1.472897
v -1.070123 -2.089909 1.472897
v -1.731494 -2.089909 -0.562597
v 0.386895 7.844435 -1.474789
v 1.337951 7.844435 -0.783806
v 0.974680 7.844435 0.334228
v -0.200890 7.844435 0.334228
v -0.564162 7.844435 -0.783806
v 0.386895 9.087708 -1.474789
v 1.337951 9.087708 0.027662
v 0.974680 9.087708 0.334228
v -0.390174 8.929016 -0.265716
v -0.564162 9.087708 -0.783806
v 0.386895 10.185664 -1.474789
v 1.337951 10.185664 0.027662
v 0.974680 10.185664 0.334228
v -0.390175 10.026972 -0.265716
v -0.564162 10.185664 -0.783806
v -0.475528 -1.000000 -0.654509
v -0.242851 0.987754 -0.654509
v -0.475528 4.441174 -0.654509
v -0.865747 -2.089909 -1.191599
v -0.088633 7.844435 -1.129298
v -0.088633 9.087708 -1.129298
v -0.088634 10.185664 -1.129298
v 2.459347 10.032033 1.587862
v 2.610011 10.032033 0.724957
v 2.459347 10.375006 1.587862
v 2.610011 10.375006 0.724957
v -2.663048 10.046229 -0.541563
v -2.044648 10.046229 0.576471
v -2.663049 10.389202 -0.541563
v -2.044649 10.389202 0.576471
v 0.556166 10.094040 -3.073246
v 0.556166 9.751067 -3.073246
v -0.030153 9.751067 -3.114736
v -0.030153 10.094040 -3.114736
v -4.918910 9.763293 -0.179327
v -3.020331 9.763293 2.440604
v -4.918910 10.816269 -0.179327
v -3.020333 10.816269 2.440604
v -7.581185 8.224254 2.497974
v -6.781475 8.224254 3.943807
v -7.581185 8.667783 2.497974
v -6.781476 8.667783 3.943807
v 4.636482 9.714129 2.792217
v 5.066452 9.714129 0.329629
v 4.636479 10.692917 2.792217
v 5.066450 10.692917 0.329629
v 7.944422 7.891870 3.770913
v 8.153118 7.891870 2.575633
v 7.944420 8.366950 3.770913
v 8.153117 8.366950 2.575633
v 0.962138 10.508196 -6.226883
v 0.962139 9.246073 -6.226883
v -1.195487 9.246073 -6.379566
v -1.195489 10.508196 -6.379566
v 1.397369 8.288962 -8.904161
v 1.397369 7.642455 -8.904161
v 0.292150 7.642455 -8.982372
v 0.292150 8.288962 -8.982372
v -0.390174 9.258118 -0.265716
v -0.390174 9.587219 -0.265716
v -0.390174 9.916321 -0.265716
v -0.564162 10.075014 -0.783806
v -0.564162 9.745913 -0.783806
v -0.564162 9.416811 -0.783806
v 1.337951 9.416810 0.027662
v 1.337951 9.745912 0.027662
v 1.337951 10.075014 0.027662
v 0.974680 10.075014 0.334228
v 0.974680 9.745913 0.334228
v 0.974680 9.416811 0.334228
v 0.386895 10.075014 -1.474789
v 0.386895 9.745913 -1.474789
v 0.386895 9.416811 -1.474789
v -0.088633 9.416810 -1.129298
v -0.088634 9.745912 -1.129298
v -0.088634 10.075014 -1.129298
v 2.610011 10.117776 0.724957
v 2.610011 10.203519 0.724957
v 2.610011 10.289263 0.724957
v 2.459347 10.289263 1.587862
v 2.459347 10.203520 1.587862
v 2.459347 10.117777 1.587862
v -2.044649 10.131972 0.576471
v -2.044649 10.217715 0.576471
v -2.044649 10.303459 0.576471
v -2.663049 10.303459 -0.541563
v -2.663049 10.217716 -0.541563
v -2.663048 10.131973 -0.541563
v 0.556166 10.008297 -3.073246
v 0.556166 9.922554 -3.073246
v 0.556166 9.836811 -3.073246
v -0.030153 9.836810 -3.114736
v -0.030153 9.922553 -3.114736
v -0.030153 10.008297 -3.114736
v -3.020331 10.026537 2.440604
v -3.020332 10.289781 2.440604
v -3.020332 10.553024 2.440604
v -4.918910 10.553025 -0.179327
v -4.918910 10.289782 -0.179327
v -4.918910 10.026537 -0.179327
v -6.781475 8.335136 3.943807
v -6.781475 8.446018 3.943807
v -6.781475 8.556900 3.943807
v -7.581185 8.556900 2.497974
v -7.581185 8.446018 2.497974
v -7.581185 8.335136 2.497974
v 5.066451 9.958826 0.329629
v 5.066451 10.203523 0.329629
v 5.066450 10.448219 0.329629
v 4.636480 10.448220 2.792217
v 4.636481 10.203524 2.792217
v 4.636481 9.958826 2.792217
v 8.153118 8.010640 2.575633
v 8.153118 8.129410 2.575633
v 8.153118 8.248180 2.575633
v 7.944420 8.248180 3.770913
v 7.944421 8.129411 3.770913
v 7.944421 8.010641 3.770913
v 0.962138 10.192665 -6.226883
v 0.962138 9.877134 -6.226883
v 0.962139 9.561604 -6.226883
v -1.195488 9.561604 -6.379566
v -1.195488 9.877134 -6.379566
v -1.195488 10.192665 -6.379566
v 1.397369 8.127336 -8.904161
v 1.397369 7.965709 -8.904161
v 1.397369 7.804082 -8.904161
v 0.292150 7.804082 -8.982372
v 0.292150 7.965709 -8.982372
v 0.292150 8.127336 -8.982372
v 0.828954 -1.544955 1.140957
v 1.341275 -1.544955 -0.435807
v 0.000000 -1.544955 -1.410300
v -1.341275 -1.544955 -0.435807
v -0.828954 -1.544955 1.140957
v -0.670638 -1.544955 -0.923054
vt 0.649035 0.852501
vt 0.646988 0.790461
vt 0.683434 0.786102
vt 0.685480 0.848143
vt 0.772686 0.803975
vt 0.764526 0.741950
vt 0.785829 0.741950
vt 0.793989 0.803975
vt 0.820931 0.741114
vt 0.829091 0.803139
vt 0.801528 0.275253
vt 0.765441 0.274115
vt 0.772587 0.166281
vt 0.808674 0.167419
vt 0.766897 0.336464
vt 0.802984 0.337604
vt 0.664900 0.071059
vt 0.626967 0.120895
vt 0.611408 0.111248
vt 0.649341 0.061412
vt 0.760181 0.821274
vt 0.790224 0.821274
vt 0.786460 0.838572
vt 0.747676 0.838572
vt 0.825772 0.632901
vt 0.790669 0.633738
vt 0.772601 0.527426
vt 0.807703 0.526588
vt 0.769367 0.633738
vt 0.642526 0.130542
vt 0.589833 0.224108
vt 0.574274 0.214461
vt 0.628167 0.683800
vt 0.664612 0.679441
vt 0.061304 0.927548
vt 0.022159 0.873303
vt 0.061304 0.819183
vt 0.124644 0.839979
vt 0.124644 0.906953
vt 0.092974 0.917251
vt 0.673595 0.055390
vt 0.651652 0.041785
vt 0.653964 0.022159
vt 0.682291 0.039721
vt 0.643020 0.870988
vt 0.694419 0.864841
vt 0.703359 0.881539
vt 0.637006 0.889474
vt 0.839729 0.820093
vt 0.850367 0.837049
vt 0.760916 0.353438
vt 0.811810 0.355045
vt 0.820635 0.372486
vt 0.754935 0.370413
vt 0.501738 0.293820
vt 0.517297 0.303467
vt 0.496590 0.336233
vt 0.481031 0.326587
vt 0.615010 0.579441
vt 0.651456 0.575082
vt 0.783248 0.059905
vt 0.819335 0.061045
vt 0.751298 0.527426
vt 0.902509 0.256603
vt 0.899063 0.256947
vt 0.882231 0.201055
vt 0.884901 0.200789
vt 0.771842 0.488527
vt 0.807083 0.492382
vt 0.610242 0.540894
vt 0.662716 0.533389
vt 0.803661 0.026589
vt 0.820635 0.022159
vt 0.758128 0.488715
vt 0.302876 0.222807
vt 0.301287 0.278316
vt 0.284039 0.276249
vt 0.266791 0.274181
vt 0.261764 0.257669
vt 0.289061 0.220068
vt 0.658929 0.502778
vt 0.658505 0.499348
vt 0.702044 0.488527
vt 0.702372 0.491185
vt 0.464587 0.352607
vt 0.480146 0.362254
vt 0.478303 0.365170
vt 0.462744 0.355523
vt 0.925279 0.856747
vt 0.925279 0.819211
vt 0.928708 0.818728
vt 0.928708 0.856264
vt 0.606455 0.510283
vt 0.606031 0.506852
vt 0.608980 0.530690
vt 0.580183 0.526225
vt 0.579854 0.523566
vt 0.558715 0.204814
vt 0.486179 0.284173
vt 0.465472 0.316940
vt 0.695539 0.068995
vt 0.710618 0.057284
vt 0.680459 0.080706
vt 0.296699 0.819427
vt 0.299372 0.819427
vt 0.312928 0.885104
vt 0.305299 0.885104
vt 0.309913 0.162797
vt 0.326681 0.183939
vt 0.904882 0.822083
vt 0.894684 0.823520
vt 0.916220 0.763055
vt 0.918877 0.762681
vt 0.229609 0.771280
vt 0.215706 0.766221
vt 0.212389 0.719121
vt 0.238096 0.709758
vt 0.864952 0.155985
vt 0.873149 0.155167
vt 0.212048 0.299608
vt 0.210964 0.259678
vt 0.491108 0.344907
vt 0.528152 0.387616
vt 0.526723 0.389876
vt 0.055709 0.531299
vt 0.072820 0.532822
vt 0.077651 0.586605
vt 0.037965 0.591481
vt 0.349126 0.711460
vt 0.330820 0.712029
vt 0.282413 0.615138
vt 0.349779 0.613044
vt 0.328598 0.319320
vt 0.314345 0.329483
vt 0.903279 0.649346
vt 0.899818 0.649229
vt 0.904188 0.595932
vt 0.906870 0.596023
vt 0.347296 0.762863
vt 0.333709 0.775110
vt 0.919441 0.023536
vt 0.922894 0.023192
vt 0.120414 0.637359
vt 0.022159 0.661762
vt 0.585624 0.409541
vt 0.581240 0.416479
vt 0.153872 0.323830
vt 0.162736 0.223333
vt 0.404506 0.752767
vt 0.404506 0.701058
vt 0.407976 0.701058
vt 0.407976 0.752767
vt 0.120414 0.768560
vt 0.069092 0.774866
vt 0.710618 0.432521
vt 0.708771 0.435444
vt 0.023560 0.295522
vt 0.022159 0.243884
vt 0.231299 0.819099
vt 0.238095 0.815598
vt 0.227665 0.955056
vt 0.224367 0.956755
vt 0.164732 0.659373
vt 0.238096 0.632650
vt 0.897545 0.698978
vt 0.905128 0.697911
vt 0.350426 0.095987
vt 0.398279 0.156323
vt 0.234797 0.972743
vt 0.238095 0.971044
vt 0.183143 0.544270
vt 0.218752 0.531299
vt 0.400014 0.642163
vt 0.394096 0.637303
vt 0.406278 0.531299
vt 0.409150 0.533657
vt 0.395200 0.022159
vt 0.418427 0.051444
vt 0.887913 0.307444
vt 0.895566 0.301264
vt 0.895566 0.415548
vt 0.891645 0.418714
vt 0.390566 0.398148
vt 0.338115 0.435547
vt 0.529560 0.553392
vt 0.528349 0.543610
vt 0.894684 0.488528
vt 0.904552 0.488862
vt 0.491401 0.597690
vt 0.463364 0.599944
vt 0.462744 0.594934
vt 0.490781 0.592678
vt 0.315271 0.532371
vt 0.349779 0.531299
vt 0.418427 0.467824
vt 0.391559 0.486981
vt 0.493260 0.612723
vt 0.492640 0.607712
vt 0.524719 0.514260
vt 0.525929 0.524043
vt 0.527139 0.533826
vt 0.492021 0.602700
vt 0.465223 0.614978
vt 0.464603 0.609966
vt 0.463984 0.604956
vt 0.914915 0.596295
vt 0.912233 0.596204
vt 0.924290 0.489529
vt 0.934158 0.489863
vt 0.909552 0.596113
vt 0.914421 0.489195
vt 0.578867 0.515592
vt 0.579196 0.518250
vt 0.579525 0.520908
vt 0.864952 0.325984
vt 0.872605 0.319804
vt 0.883805 0.425045
vt 0.879885 0.428211
vt 0.880260 0.313624
vt 0.887725 0.421879
vt 0.417768 0.656741
vt 0.411850 0.651881
vt 0.414895 0.538374
vt 0.417768 0.540733
vt 0.405931 0.647022
vt 0.412023 0.536016
vt 0.224901 0.977841
vt 0.214472 0.961853
vt 0.217770 0.960154
vt 0.228200 0.976142
vt 0.221068 0.958454
vt 0.231499 0.974443
vt 0.926848 0.761559
vt 0.924191 0.761933
vt 0.920294 0.695775
vt 0.927876 0.694707
vt 0.921534 0.762307
vt 0.912711 0.696843
vt 0.210913 0.829603
vt 0.217709 0.826102
vt 0.224504 0.822600
vt 0.568086 0.437292
vt 0.572471 0.430354
vt 0.705078 0.441288
vt 0.703231 0.444211
vt 0.576855 0.423417
vt 0.706924 0.438366
vt 0.394096 0.752767
vt 0.394096 0.701058
vt 0.397566 0.701058
vt 0.397566 0.752767
vt 0.401036 0.701058
vt 0.401036 0.752767
vt 0.522439 0.396655
vt 0.523867 0.394396
vt 0.525295 0.392136
vt 0.897740 0.152714
vt 0.889543 0.153532
vt 0.929799 0.022503
vt 0.933251 0.022159
vt 0.881346 0.154350
vt 0.926346 0.022848
vt 0.934158 0.650391
vt 0.923865 0.650043
vt 0.913572 0.649694
vt 0.485627 0.353580
vt 0.892910 0.199990
vt 0.890241 0.200256
vt 0.887570 0.200522
vt 0.915081 0.820647
vt 0.288679 0.819427
vt 0.291352 0.819427
vt 0.290041 0.885104
vt 0.282413 0.885104
vt 0.294025 0.819427
vt 0.297670 0.885104
vt 0.607718 0.520486
vt 0.661454 0.523186
vt 0.660192 0.512981
vt 0.894684 0.861055
vt 0.904882 0.859619
vt 0.915081 0.858183
vt 0.475549 0.335260
vt 0.470068 0.343934
vt 0.703030 0.496503
vt 0.703359 0.499161
vt 0.702701 0.493844
vt 0.933251 0.253536
vt 0.923004 0.254559
vt 0.912756 0.255581
vn 0.5864 -0.0686 -0.8071
vn 0.9452 -0.1106 0.3071
vn -0.0000 0.0000 1.0000
vn -0.9491 -0.0639 0.3084
vn -0.9452 0.1106 0.3071
vn -0.5864 0.0686 -0.8071
vn 0.8122 0.5202 0.2639
vn -0.0000 0.1382 0.9904
vn 0.9491 0.0639 0.3084
vn -0.5873 -0.0396 -0.8084
vn 0.5873 0.0396 -0.8084
vn 0.0000 -1.0000 -0.0000
vn -0.5020 0.5202 -0.6909
vn 0.5020 0.5202 -0.6909
vn -0.0000 0.5202 0.8540
vn -0.8122 0.5202 0.2639
vn -0.5878 0.0000 -0.8090
vn 0.5785 -0.1769 -0.7963
vn -0.9404 0.1495 0.3055
vn 0.9491 -0.0649 0.3084
vn -0.5872 -0.0460 -0.8082
vn 0.4536 0.0000 0.8912
vn -0.2372 0.2243 0.9452
vn 0.7388 0.2091 -0.6407
vn -0.9500 0.0032 0.3123
vn 0.8812 -0.1467 0.4494
vn -0.0496 0.9964 0.0682
vn 0.4807 0.0000 -0.8769
vn -0.4024 -0.0000 0.9155
vn 0.8449 0.0000 -0.5349
vn 0.9944 0.0000 0.1053
vn -0.1589 0.0000 -0.9873
vn -0.1041 0.9935 -0.0457
vn -0.6452 -0.0000 0.7641
vn 0.4538 -0.8685 0.1994
vn 0.8860 0.0000 0.4637
vn 0.1549 0.9877 0.0208
vn -0.1147 -0.0000 -0.9934
vn -0.4501 -0.8831 0.1324
vn -0.0111 -0.9876 0.1567
vn -0.0149 0.9985 -0.0520
vn -0.9996 -0.0000 -0.0294
vn -0.1005 -0.9310 -0.3510
vn 0.3711 0.0000 0.9286
vn 0.1184 -0.9898 -0.0797
vn -0.1585 0.0000 -0.9874
vn 0.1764 0.9771 -0.1188
vn -0.8751 -0.0000 0.4840
vn 0.3105 -0.9279 -0.2061
vn -0.7091 0.0000 -0.7051
vn -0.4075 0.8722 0.2704
vn 0.5884 0.0000 -0.8086
vn -0.1320 -0.9910 -0.0230
vn -0.4841 -0.0000 0.8750
vn -0.1320 0.9910 -0.0230
vn 0.9851 0.0000 0.1720
vn -0.4625 -0.8829 -0.0808
vn -0.2837 -0.0000 0.9589
vn 0.5532 0.8274 0.0966
vn -0.8682 -0.0000 -0.4962
vn -0.0091 0.9916 0.1290
vn 0.9918 0.0000 0.1277
vn -0.9418 -0.0000 0.3362
vn 0.0706 0.0000 -0.9975
vn -0.0360 -0.8599 0.5092
vn 0.0448 0.7727 -0.6332
vn 0.9870 0.0000 0.1605
vn -0.6452 -0.0000 0.7640
usemtl Material.001
s off
f 1/1/1 2/2/1 4/3/1 3/4/1
f 3/5/2 4/6/2 6/7/2 5/8/2
f 5/8/3 6/7/3 8/9/3 7/10/3
f 10/11/4 8/12/4 14/13/4 15/14/4
f 7/15/5 8/12/5 10/11/5 9/16/5
f 36/17/6 37/18/6 2/19/6 1/20/6
f 152/21/7 151/22/7 18/23/7 17/24/7
f 14/25/8 13/26/8 23/27/8 24/28/8
f 6/7/9 4/6/9 12/29/9 13/26/9
f 37/18/10 10/30/10 15/31/10 38/32/10
f 4/3/11 2/2/11 11/33/11 12/34/11
f 8/9/3 6/7/3 13/26/3 14/25/3
f 16/35/12 17/36/12 18/37/12 19/38/12 20/39/12 39/40/12
f 156/41/13 153/42/13 16/43/13 39/44/13
f 153/45/14 152/46/14 17/47/14 16/48/14
f 151/22/15 155/49/15 19/50/15 18/23/15
f 155/51/16 154/52/16 20/53/16 19/54/16
f 40/55/17 25/56/17 30/57/17 41/58/17
f 12/34/18 11/33/18 21/59/18 22/60/18
f 15/14/19 14/13/19 24/61/19 25/62/19
f 13/26/20 12/29/20 22/63/20 23/27/20
f 38/32/21 15/31/21 25/56/21 40/55/21
f 81/64/22 34/65/22 50/66/22 105/67/22
f 24/28/23 23/27/23 28/68/23 29/69/23
f 22/60/24 21/59/24 26/70/24 27/71/24
f 25/62/25 24/61/25 29/72/25 30/73/25
f 23/27/26 22/63/26 27/74/26 28/68/26
f 32/75/27 31/76/27 42/77/27 35/78/27 34/79/27 33/80/27
f 87/81/28 32/82/28 46/83/28 99/84/28
f 96/85/17 82/86/17 35/87/17 42/88/17
f 81/89/29 88/90/29 33/91/29 34/92/29
f 87/81/30 91/93/30 31/94/30 32/82/30
f 93/95/31 26/70/31 52/96/31 111/97/31
f 11/98/21 38/32/21 40/55/21 21/99/21
f 21/99/17 40/55/17 41/58/17 26/100/17
f 154/101/13 156/41/13 39/44/13 20/102/13
f 2/19/10 37/18/10 38/32/10 11/98/10
f 9/103/6 10/30/6 37/18/6 36/17/6
f 99/104/32 46/105/32 66/106/32 129/107/32
f 32/75/33 33/80/33 45/108/33 46/109/33
f 90/110/34 28/111/34 43/112/34 102/113/34
f 28/114/35 27/115/35 44/116/35 43/117/35
f 105/67/36 50/66/36 58/118/36 117/119/36
f 34/79/37 35/78/37 49/120/37 50/121/37
f 84/122/38 30/57/38 47/123/38 108/124/38
f 30/125/39 29/126/39 48/127/39 47/128/39
f 52/129/40 53/130/40 73/131/40 72/132/40
f 42/77/41 31/76/41 51/133/41 54/134/41
f 96/135/42 42/136/42 54/137/42 114/138/42
f 26/139/43 41/140/43 53/130/43 52/129/43
f 117/119/44 58/118/44 62/141/44 123/142/44
f 47/128/45 48/127/45 56/143/45 55/144/45
f 108/124/46 47/123/46 55/145/46 120/146/46
f 50/121/47 49/120/47 57/147/47 58/148/47
f 124/149/48 123/150/48 62/151/48 61/152/48
f 55/144/49 56/143/49 60/153/49 59/154/49
f 120/146/50 55/145/50 59/155/50 126/156/50
f 58/148/51 57/147/51 61/157/51 62/158/51
f 129/159/52 66/160/52 70/161/52 135/162/52
f 43/117/53 44/116/53 64/163/53 63/164/53
f 102/113/54 43/112/54 63/165/54 132/166/54
f 46/109/55 45/108/55 65/167/55 66/168/55
f 136/169/56 135/162/56 70/161/56 69/170/56
f 63/164/57 64/163/57 68/171/57 67/172/57
f 132/173/58 63/174/58 67/175/58 138/176/58
f 66/168/59 65/167/59 69/177/59 70/178/59
f 144/179/60 74/180/60 78/181/60 150/182/60
f 54/134/61 51/133/61 71/183/61 74/184/61
f 111/97/62 52/96/62 72/185/62 141/186/62
f 114/138/63 54/137/63 74/187/63 144/188/63
f 145/189/64 150/190/64 78/191/64 75/192/64
f 72/132/65 73/131/65 77/193/65 76/194/65
f 74/184/66 71/183/66 75/195/66 78/196/66
f 141/186/67 72/185/67 76/197/67 147/198/67
f 71/199/67 139/200/67 145/189/67 75/192/67
f 139/200/67 140/201/67 146/202/67 145/189/67
f 140/201/67 141/186/67 147/198/67 146/202/67
f 76/197/64 77/203/64 148/204/64 147/198/64
f 147/198/64 148/204/64 149/205/64 146/202/64
f 146/202/64 149/205/64 150/190/64 145/189/64
f 53/206/63 112/207/63 142/208/63 73/209/63
f 112/207/63 113/210/63 143/211/63 142/208/63
f 113/210/63 114/138/63 144/188/63 143/211/63
f 51/212/62 109/213/62 139/200/62 71/199/62
f 109/213/62 110/214/62 140/201/62 139/200/62
f 110/214/62 111/97/62 141/186/62 140/201/62
f 73/215/60 142/216/60 148/217/60 77/218/60
f 142/216/60 143/219/60 149/220/60 148/217/60
f 143/219/60 144/179/60 150/182/60 149/220/60
f 65/221/58 130/222/58 136/223/58 69/224/58
f 130/222/58 131/225/58 137/226/58 136/223/58
f 131/225/58 132/173/58 138/176/58 137/226/58
f 67/227/56 68/228/56 133/229/56 138/230/56
f 138/230/56 133/229/56 134/231/56 137/232/56
f 137/232/56 134/231/56 135/162/56 136/169/56
f 45/233/54 100/234/54 130/235/54 65/236/54
f 100/234/54 101/237/54 131/238/54 130/235/54
f 101/237/54 102/113/54 132/166/54 131/238/54
f 64/239/52 127/240/52 133/229/52 68/228/52
f 127/240/52 128/241/52 134/231/52 133/229/52
f 128/241/52 129/159/52 135/162/52 134/231/52
f 57/242/50 118/243/50 124/244/50 61/245/50
f 118/243/50 119/246/50 125/247/50 124/244/50
f 119/246/50 120/146/50 126/156/50 125/247/50
f 59/248/48 60/249/48 121/250/48 126/251/48
f 126/251/48 121/250/48 122/252/48 125/253/48
f 125/253/48 122/252/48 123/150/48 124/149/48
f 49/254/46 106/255/46 118/243/46 57/242/46
f 106/255/46 107/256/46 119/246/46 118/243/46
f 107/256/46 108/124/46 120/146/46 119/246/46
f 56/257/44 115/258/44 121/259/44 60/260/44
f 115/258/44 116/261/44 122/262/44 121/259/44
f 116/261/44 117/119/44 123/142/44 122/262/44
f 41/263/42 94/264/42 112/207/42 53/206/42
f 94/264/42 95/265/42 113/210/42 112/207/42
f 95/265/42 96/135/42 114/138/42 113/210/42
f 35/87/38 82/86/38 106/255/38 49/254/38
f 82/86/38 83/266/38 107/256/38 106/255/38
f 83/266/38 84/122/38 108/124/38 107/256/38
f 48/267/36 103/268/36 115/258/36 56/257/36
f 103/268/36 104/269/36 116/261/36 115/258/36
f 104/269/36 105/67/36 117/119/36 116/261/36
f 33/91/68 88/90/68 100/234/68 45/233/68
f 88/90/34 89/270/34 101/237/34 100/234/34
f 89/270/34 90/110/34 102/113/34 101/237/34
f 44/271/32 97/272/32 127/273/32 64/274/32
f 97/272/32 98/275/32 128/276/32 127/273/32
f 98/275/32 99/104/32 129/107/32 128/276/32
f 31/94/31 91/93/31 109/213/31 51/212/31
f 91/93/31 92/277/31 110/214/31 109/213/31
f 92/277/31 93/95/31 111/97/31 110/214/31
f 27/71/30 26/70/30 93/95/30 85/278/30
f 85/278/30 93/95/30 92/277/30 86/279/30
f 86/279/30 92/277/30 91/93/30 87/81/30
f 29/280/29 28/111/29 90/110/29 79/281/29
f 79/281/29 90/110/29 89/270/29 80/282/29
f 80/282/29 89/270/29 88/90/29 81/89/29
f 41/58/17 30/57/17 84/122/17 94/283/17
f 94/283/17 84/122/17 83/266/17 95/284/17
f 95/284/17 83/266/17 82/86/17 96/85/17
f 27/71/28 85/278/28 97/285/28 44/286/28
f 85/278/28 86/279/28 98/287/28 97/285/28
f 86/279/28 87/81/28 99/84/28 98/287/28
f 29/288/22 79/289/22 103/268/22 48/267/22
f 79/289/22 80/290/22 104/269/22 103/268/22
f 80/290/22 81/64/22 105/67/22 104/269/22
f 9/103/13 36/17/13 156/41/13 154/101/13
f 7/15/16 9/16/16 154/52/16 155/51/16
f 5/8/15 7/10/15 155/49/15 151/22/15
f 1/1/14 3/4/14 152/46/14 153/45/14
f 36/17/13 1/20/13 153/42/13 156/41/13
f 3/5/7 5/8/7 151/22/7 152/21/7
